<svg width="52" height="44" viewBox="0 0 52 44" fill="none" xmlns="http://www.w3.org/2000/svg">
<g clip-path="url(#clip0_1_211)">
<path fill-rule="evenodd" clip-rule="evenodd" d="M3.64456 43.46C4.01421 43.47 5.35296 43.37 5.89246 43.33L10.5081 42.83C12.8959 42.67 15.2737 42.54 17.6115 42.8C19.0701 42.96 20.5088 43.21 21.9175 43.77C23.0165 44.3 24.3352 43.83 24.8647 42.73C25.3942 41.63 24.9247 40.31 23.8257 39.78C22.417 38.98 20.9584 38.43 19.4598 38.01C20.9284 37.36 22.407 36.65 23.8757 35.88C27.5722 33.92 31.2288 31.57 34.5956 28.88C36.2841 27.54 37.8826 26.1 39.3812 24.59C40.9197 23.04 42.3484 21.43 43.6572 19.75C47.9631 14.19 50.9603 8.18003 51.9494 2.25003C52.1492 1.42003 51.6297 0.580036 50.7905 0.380035C49.9513 0.180034 49.1221 0.700035 48.9223 1.54003C47.3537 6.70003 43.847 11.58 39.4711 16.13C38.1323 17.52 36.6937 18.87 35.2151 20.2C33.7564 21.51 32.2478 22.77 30.6993 24.01C26.7929 27.15 22.6268 30 18.4407 32.29C16.7423 33.22 15.0539 34.06 13.3855 34.81C13.835 34.09 14.2746 33.37 14.6842 32.62C15.3636 31.38 15.973 30.13 16.5625 28.84C17.0121 28.11 16.7823 27.15 16.053 26.7C15.3236 26.25 14.3645 26.48 13.915 27.21C13.0757 28.26 12.2166 29.26 11.3274 30.26C10.4582 31.24 9.55903 32.16 8.60992 33.07C7.82066 33.86 6.71169 34.88 5.54279 35.82C4.71356 36.48 3.86435 37.1 3.03513 37.25C1.37668 37.64 0.987042 38.68 0.877144 38.87C0.567437 39.51 0.0179444 43.35 3.64456 43.46Z" fill="#E10303"/>
</g>
<defs>
<clipPath id="clip0_1_211">
<rect width="51.342" height="43.64" fill="white" transform="translate(52 44) rotate(-180)"/>
</clipPath>
</defs>
</svg>
