<svg width="774" height="16" viewBox="0 0 774 16" fill="none" xmlns="http://www.w3.org/2000/svg">
<path d="M768.653 3.72807C763.58 3.72807 761.043 3.72807 755.969 3.33333C753.433 3.33333 748.359 3.33333 743.285 3.33333C740.748 3.33333 740.749 3.33333 740.749 2.9386C740.749 2.54386 740.749 2.54386 738.212 2.14912H735.675C740.748 2.14912 745.822 2.54386 750.896 2.54386C750.896 2.54386 753.433 2.54386 753.433 2.9386C755.969 2.9386 755.969 3.33333 758.506 3.33333C761.043 3.72807 763.58 3.72807 766.117 3.33333C768.653 3.33333 768.653 2.9386 768.653 2.9386V2.54386C766.117 2.14912 768.653 1.75439 771.19 1.75439C771.19 1.75439 771.19 1.75439 773.727 1.75439C773.727 1.75439 773.727 1.75439 773.727 1.35965C771.19 1.35965 768.653 1.35965 766.117 1.35965C761.043 1.35965 758.506 1.35965 753.433 1.35965C748.359 1.35965 740.748 0.964912 735.675 1.35965C733.138 1.35965 730.601 1.35965 730.601 1.35965C720.454 1.35965 712.844 1.35965 702.696 1.35965C700.16 1.35965 697.623 1.35965 695.086 1.35965C690.012 1.35965 687.475 1.35965 682.402 1.35965C674.791 1.35965 667.181 1.35965 659.571 1.35965C657.034 1.35965 651.96 1.35965 649.423 1.35965C639.276 1.35965 629.129 1.35965 618.982 1.35965H616.445C608.834 0.175439 603.761 0.175439 596.15 0.175439C593.614 0.175439 591.077 0.175439 588.54 0.175439C583.466 0.175439 578.393 0.175439 573.319 0.175439C565.709 0.175439 555.561 0.175439 547.951 0.175439C545.414 0.175439 540.341 0.175439 537.804 0.175439C532.73 0.175439 525.12 0.175439 520.046 0.175439C517.509 0.175439 514.972 0.175439 514.972 0.175439C504.825 0.175439 497.215 0.570175 487.068 0.175439C484.531 0.175439 479.457 0.175439 476.92 0.175439C469.31 0.175439 464.236 0.175439 456.626 0.175439H454.089C451.552 0.175439 446.479 0.175439 443.942 0.175439C441.405 0.175439 438.868 0.175439 436.331 0.175439C428.721 0.175439 423.647 0.175439 416.037 0.175439C410.963 0.175439 405.89 0.175439 400.816 0.175439C390.669 0.175439 380.521 0.175439 372.911 0.175439C365.301 0.175439 360.227 0.175439 352.617 0.175439C347.543 0.175439 345.006 0.175439 339.933 0.175439C329.785 0.175439 322.175 0.175439 312.028 0.175439C312.028 0.175439 312.028 0.175439 309.491 0.175439C304.417 0.175439 301.88 0.570175 299.344 0.175439C296.807 -0.219298 291.733 0.175439 286.66 0.175439C279.049 0.175439 268.902 0.175439 261.291 0.175439H258.755C251.144 0.175439 243.534 0.175439 238.46 0.175439C235.923 0.175439 233.387 0.570175 230.85 0.570175C228.313 1.35965 225.776 0.964912 223.239 0.964912C218.166 0.964912 215.629 1.35965 210.555 0.964912H208.018C205.482 1.35965 202.945 0.964912 200.408 0.964912C197.871 0.964912 197.871 0.964912 197.871 0.964912C197.871 0.964912 197.871 1.35965 200.408 1.35965C195.334 1.35965 190.261 1.75439 185.187 1.75439C182.65 1.75439 180.113 1.75439 180.113 1.75439C180.113 1.35965 182.65 1.75439 185.187 1.35965C185.187 1.35965 187.724 1.35965 187.724 0.964912C187.724 0.964912 187.724 0.570175 185.187 0.570175H182.65C180.113 0.570175 180.114 0.570175 177.577 0.570175C175.04 0.570175 175.04 0.570175 172.503 0.570175V0.964912C172.503 0.964912 172.503 0.964912 169.966 0.964912C167.429 0.964912 167.429 0.964912 167.429 0.570175C167.429 0.175439 167.429 0.175439 164.893 0.175439C162.356 0.175439 159.819 0.175439 157.282 0.175439C154.745 0.175439 152.209 0.175439 152.209 0.570175C152.209 0.570175 152.209 0.570175 149.672 0.570175C147.135 0.570175 144.598 0.570175 142.061 0.570175C139.525 0.570175 136.988 0.570175 134.451 0.570175C134.451 0.570175 134.451 0.570175 131.914 0.570175C126.84 2.54386 124.304 2.54386 119.23 2.9386C114.156 2.9386 114.156 2.9386 114.156 3.33333C114.156 3.72807 114.156 4.12281 111.62 4.12281C111.62 4.51754 111.62 4.51754 114.156 4.51754C114.156 4.51754 114.156 4.91228 111.62 4.91228H109.083C106.546 4.91228 106.546 5.30702 104.009 5.30702C101.472 5.30702 98.9356 5.30702 96.3988 5.30702C96.3988 4.91228 96.3988 4.91228 93.862 4.51754C91.3252 4.51754 88.7883 4.12281 91.3252 3.72807C91.3252 3.72807 91.3252 3.72807 91.3252 3.33333H88.7883C86.2515 3.72807 83.7147 3.33333 81.1779 3.33333C83.7147 3.33333 83.7147 3.33333 86.2515 3.33333H88.7883C91.3252 3.33333 93.862 3.33333 93.862 2.9386V2.54386H91.3252V2.9386C88.7883 3.33333 86.2515 3.33333 81.1779 2.9386C78.6411 2.9386 78.6411 2.9386 76.1043 2.54386C76.1043 2.9386 76.1043 3.33333 78.6411 3.33333C78.6411 3.33333 81.1779 3.33333 81.1779 3.72807C76.1043 3.72807 71.0307 3.72807 68.4939 3.72807H65.9571C65.9571 3.72807 65.9571 3.72807 65.9571 3.33333C65.9571 2.9386 68.4939 2.9386 68.4939 2.9386C65.9571 2.9386 63.4202 2.54386 58.3466 2.9386C55.8098 2.9386 53.273 2.9386 50.7362 2.9386H48.1994C43.1258 3.72807 45.6626 3.72807 40.589 4.91228L38.0521 5.30702C38.0521 5.30702 38.0521 4.91228 35.5153 4.91228C32.9785 4.91228 30.4417 4.91228 27.9049 4.91228C25.3681 4.91228 25.3681 4.91228 22.8313 4.91228C20.2945 4.91228 17.7577 4.91228 17.7577 4.91228C15.2209 4.91228 15.2209 4.91228 12.684 4.91228C7.61043 4.91228 5.07362 4.91228 2.53681 4.91228H0C0 5.30702 0 5.30702 2.53681 5.30702C2.53681 5.70175 2.53681 5.70175 7.61043 5.70175C7.61043 6.49123 15.2209 6.49123 17.7577 6.88597H20.2945C25.3681 6.49123 25.3681 6.49123 25.3681 6.88597C25.3681 6.88597 25.3681 7.2807 27.9049 7.2807C27.9049 7.2807 30.4417 7.67544 32.9785 7.2807L35.5153 6.88597C32.9785 6.88597 32.9785 6.49123 30.4417 6.49123C30.4417 6.49123 30.4417 6.09649 32.9785 6.09649H35.5153C38.0521 6.09649 35.5153 6.09649 35.5153 6.49123V6.88597C40.589 6.88597 40.589 6.88596 38.0521 7.2807C35.5153 7.67544 35.5153 8.07018 38.0521 8.07018C38.0521 8.07018 38.0522 8.07018 40.589 8.07018C43.1258 8.46491 43.1258 8.46491 38.0521 8.46491C43.1258 8.85965 45.6626 9.25439 48.1994 10.0439C55.8098 11.2281 65.9571 12.0175 76.1043 12.4123C81.1779 12.807 88.7883 12.807 93.862 12.807C101.472 13.2018 111.62 13.2018 119.23 13.5965C124.304 13.5965 129.377 13.9912 134.451 13.9912C136.988 13.9912 139.525 13.9912 142.061 13.9912C147.135 13.9912 152.209 13.9912 157.282 13.9912C159.819 13.9912 162.356 13.9912 164.893 13.9912C167.429 13.9912 172.503 13.9912 175.04 14.386C180.114 14.7807 187.724 14.7807 192.798 14.386C195.334 14.386 195.334 14.386 197.871 13.9912C200.408 13.9912 202.945 13.9912 202.945 14.386C202.945 14.386 202.945 14.7807 205.482 14.7807C208.018 14.7807 213.092 15.1754 215.629 15.1754C218.166 15.1754 218.166 15.1754 220.702 14.7807L223.239 14.386C228.313 13.9912 235.923 13.5965 240.997 13.9912C243.534 13.9912 243.534 13.9912 243.534 14.386C246.071 14.7807 246.071 14.7807 248.607 15.1754C248.607 15.5702 251.144 15.5702 253.681 15.5702C258.755 15.5702 263.828 15.5702 268.902 15.1754C276.512 14.386 286.66 13.9912 296.807 13.5965C301.88 13.5965 309.491 13.2018 314.564 13.2018C324.712 13.2018 332.322 13.2018 342.469 12.807C355.153 12.807 365.301 12.4123 377.985 12.4123C383.058 12.4123 388.132 12.4123 390.669 12.0175C393.206 12.0175 395.742 12.0175 398.279 12.0175C403.353 12.0175 410.963 12.0175 416.037 12.0175C418.574 12.0175 421.11 12.0175 426.184 12.0175C436.331 12.0175 443.942 12.0175 454.089 11.6228C456.626 11.6228 459.163 11.6228 459.163 11.6228C464.236 11.2281 471.847 11.2281 476.92 11.2281C479.457 11.2281 479.457 11.2281 481.994 11.2281C484.531 11.2281 487.068 11.2281 487.068 10.8333C489.604 10.8333 492.141 10.8333 492.141 10.8333C494.678 10.8333 499.752 10.8333 502.288 10.4386C504.825 10.4386 504.825 10.4386 507.362 10.4386C512.436 10.4386 517.509 10.4386 522.583 10.4386C525.12 10.4386 527.656 10.4386 530.193 10.4386C535.267 10.4386 537.804 10.4386 542.877 10.4386C545.414 10.4386 547.951 10.4386 553.025 10.4386H555.561C555.561 10.0439 558.098 10.0439 563.172 10.0439C565.709 10.0439 568.245 10.0439 570.782 10.0439C573.319 10.0439 578.393 10.0439 580.929 9.64912C580.929 9.64912 583.466 9.64912 586.003 9.64912C591.077 9.64912 593.614 9.64912 598.687 9.25439H601.224C603.761 9.64912 608.834 9.64912 611.371 9.25439C616.445 8.85965 621.518 8.85965 629.129 8.85965C629.129 8.85965 629.129 8.85965 631.666 8.85965C626.592 8.85965 624.055 8.46491 618.982 8.46491H616.445C618.982 8.07018 618.982 8.07018 621.518 8.46491C631.666 8.46491 641.813 8.46491 651.96 8.46491C662.107 8.46491 672.255 8.07018 682.402 8.07018C679.865 8.07018 677.328 8.07018 674.791 8.07018C669.718 8.07018 664.644 8.07018 662.107 8.07018C659.571 8.07018 657.034 8.07018 657.034 7.67544C657.034 7.2807 659.571 7.2807 662.107 7.2807C664.644 7.2807 669.718 7.2807 672.255 7.67544C674.791 8.07018 679.865 8.07018 682.402 7.67544C684.939 7.2807 690.012 7.2807 692.549 7.2807C695.086 7.2807 695.086 7.2807 697.623 7.2807C697.623 7.2807 700.16 7.2807 702.696 7.2807C705.233 7.2807 705.233 7.2807 707.77 7.2807C710.307 7.2807 712.844 6.88597 712.844 6.88597C717.917 6.88597 722.991 6.49123 728.064 6.49123C730.601 6.49123 735.675 6.09649 738.212 6.49123C740.749 6.49123 740.748 6.49123 743.285 6.49123C745.822 6.49123 745.822 6.49123 748.359 6.49123C748.359 6.49123 748.359 6.09649 745.822 6.09649C743.285 6.09649 740.749 5.70175 738.212 5.70175C735.675 5.70175 735.675 5.70175 733.138 5.70175C733.138 5.30702 735.675 5.30702 738.212 4.91228H740.749C735.675 3.72807 735.675 4.12281 738.212 4.12281H740.749H743.285C745.822 3.72807 748.359 4.12281 750.896 4.12281C753.433 4.12281 753.433 4.12281 755.969 4.12281C755.969 4.12281 758.506 4.12281 761.043 4.12281C761.043 3.72807 763.58 3.72807 768.653 3.72807C771.19 3.72807 768.653 3.72807 768.653 3.72807ZM758.506 1.35965C761.043 1.35965 761.043 1.35965 763.58 1.35965H761.043C758.506 1.75439 755.969 1.35965 758.506 1.35965C758.506 1.35965 755.969 1.35965 758.506 1.35965ZM748.359 0.964912C748.359 1.35965 748.359 1.35965 748.359 0.964912C748.359 1.35965 748.359 1.35965 748.359 0.964912C745.822 1.35965 745.822 1.35965 748.359 0.964912C745.822 1.35965 745.822 1.35965 748.359 0.964912ZM32.9785 6.09649C30.4417 5.70175 30.4417 5.70175 32.9785 6.09649C32.9785 5.70175 35.5153 5.70175 38.0521 5.70175C38.0521 5.70175 35.5153 6.09649 32.9785 6.09649ZM50.7362 8.07018C48.1994 8.07018 48.1994 8.07018 50.7362 8.07018C48.1994 7.67544 48.1994 7.67544 50.7362 8.07018C50.7362 7.67544 50.7362 7.67544 50.7362 8.07018ZM58.3466 6.88597C53.273 6.88597 50.7362 6.88596 45.6626 7.2807H43.1258C43.1258 7.2807 43.1258 6.88597 45.6626 6.88597C50.7362 6.49123 53.273 6.49123 58.3466 6.88597C58.3466 6.49123 58.3466 6.49123 58.3466 6.88597C60.8834 6.88597 58.3466 6.88597 58.3466 6.88597ZM73.5675 7.2807C71.0307 7.2807 71.0307 7.2807 73.5675 7.2807C71.0307 7.2807 71.0307 7.2807 73.5675 7.2807C71.0307 6.88596 71.0307 6.88597 73.5675 6.88597C73.5675 7.2807 73.5675 7.2807 73.5675 7.2807ZM73.5675 5.30702C73.5675 4.91228 78.6411 4.51754 81.1779 4.51754V4.91228C78.6411 4.91228 76.1043 5.30702 76.1043 5.70175H73.5675C71.0307 5.70175 71.0307 5.30702 73.5675 5.30702ZM78.6411 6.88597C76.1043 6.88597 76.1043 6.88597 73.5675 6.88597C76.1043 6.88597 76.1043 6.49123 78.6411 6.49123C81.1779 6.09649 81.1779 6.49123 83.7147 6.49123C86.2515 6.49123 86.2515 6.49123 86.2515 6.88597C83.7147 6.88597 81.1779 6.88597 78.6411 6.88597ZM88.7883 6.09649C88.7883 6.09649 88.7883 6.49123 88.7883 6.09649V6.09649ZM93.862 5.70175H96.3988C96.3988 5.70175 93.862 6.09649 93.862 5.70175ZM121.767 6.88597H119.23C116.693 6.88597 114.156 6.88597 111.62 6.88597C109.083 6.88597 109.083 6.88597 106.546 6.88597C106.546 6.88597 104.009 6.88597 104.009 6.49123C104.009 6.49123 104.009 6.09649 106.546 6.09649C109.083 6.09649 111.62 6.09649 114.156 5.70175C116.693 5.70175 119.23 5.30702 121.767 5.70175H124.304C124.304 6.49123 121.767 6.49123 121.767 6.88597ZM129.377 4.51754L126.84 4.91228C126.84 4.91228 126.84 4.91228 124.304 4.91228C121.767 4.51754 116.693 4.91228 116.693 4.51754C119.23 4.12281 124.304 4.12281 129.377 4.51754C129.377 4.12281 129.377 4.12281 129.377 4.51754C129.377 4.12281 129.377 4.12281 129.377 4.51754ZM134.451 3.72807C134.451 3.33333 134.451 3.72807 134.451 3.72807C134.451 3.33333 136.988 2.9386 139.525 3.33333C142.061 3.33333 136.988 3.72807 134.451 3.72807ZM149.672 4.51754C147.135 4.51754 147.135 4.51754 144.598 4.51754C144.598 4.51754 144.598 4.51754 142.061 4.51754C142.061 4.51754 142.061 4.51754 142.061 4.12281C144.598 4.12281 149.672 4.12281 154.745 4.12281C154.745 4.12281 154.745 4.12281 154.745 4.51754C154.745 4.51754 154.745 4.91228 149.672 4.51754ZM157.282 2.54386C154.745 2.54386 154.745 2.14912 154.745 2.14912C154.745 2.14912 154.745 2.14912 157.282 2.14912C157.282 2.14912 157.282 2.14912 157.282 2.54386C157.282 2.54386 157.282 2.14912 157.282 2.54386ZM215.629 2.14912C215.629 1.75439 215.629 1.75439 215.629 2.14912C218.166 1.75439 220.702 1.75439 223.239 1.75439C220.702 2.14912 218.166 2.14912 215.629 2.14912ZM258.755 9.25439C258.755 8.85965 258.755 9.25439 258.755 9.25439V9.25439ZM408.426 8.85965C408.426 8.85965 408.426 9.25439 408.426 8.85965C410.963 8.85965 410.963 8.85965 408.426 8.85965C410.963 8.85965 408.426 8.85965 408.426 8.85965ZM461.699 10.8333C461.699 10.4386 464.236 10.4386 461.699 10.8333C464.236 10.4386 464.236 10.4386 461.699 10.8333C464.236 10.8333 464.236 10.8333 461.699 10.8333ZM481.994 10.4386C484.531 10.4386 484.531 10.4386 484.531 10.4386C484.531 10.8333 481.994 10.8333 481.994 10.4386ZM631.666 6.49123C631.666 6.09649 631.666 6.49123 631.666 6.49123C631.666 6.09649 631.666 6.09649 631.666 6.49123C634.202 6.09649 631.666 6.09649 631.666 6.49123C634.202 6.09649 631.666 6.09649 631.666 6.49123ZM664.644 5.70175C669.718 5.70175 674.791 5.70175 679.865 5.70175C674.791 6.09649 669.718 6.09649 664.644 5.70175ZM684.939 2.14912H682.402C682.402 2.14912 682.402 2.14912 679.865 2.14912C679.865 1.75439 682.402 1.75439 684.939 2.14912C684.939 1.75439 682.402 1.75439 684.939 2.14912C684.939 2.14912 684.939 1.75439 684.939 2.14912ZM692.549 4.51754C692.549 4.12281 692.549 4.51754 692.549 4.51754C692.549 4.12281 695.086 4.12281 692.549 4.51754C695.086 4.51754 692.549 4.51754 692.549 4.51754ZM707.77 4.12281C707.77 4.12281 707.77 4.51754 707.77 4.12281C705.233 4.51754 705.233 4.12281 705.233 4.12281V3.72807C705.233 3.72807 705.233 3.33333 707.77 3.33333H710.307C710.307 3.72807 707.77 3.72807 707.77 4.12281ZM717.917 5.30702C715.38 5.30702 715.38 5.30702 712.844 4.91228C715.38 4.91228 715.38 4.91228 717.917 5.30702C717.917 4.91228 717.917 4.91228 717.917 4.91228C715.38 4.91228 712.844 4.91228 712.844 4.91228C712.844 4.91228 710.307 4.51754 712.844 4.51754C712.844 4.51754 715.38 4.51754 717.917 4.51754H720.454C722.991 4.51754 722.991 4.91228 722.991 4.91228C722.991 5.30702 720.454 5.30702 717.917 5.30702ZM725.528 2.54386C722.991 2.54386 722.991 2.9386 720.454 2.54386C720.454 2.54386 717.917 2.54386 717.917 2.14912C717.917 2.14912 717.917 1.75439 720.454 1.75439H722.991C725.528 2.14912 725.528 2.14912 725.528 2.54386C725.528 2.14912 725.528 2.14912 725.528 2.54386C728.064 2.54386 728.064 2.14912 725.528 2.54386Z" fill="#FFA300"/>
</svg>
